# xmcd
#
# Track frame offsets: 
#        150
#        17608
#        33014
#        51827
#        69644
#        91540
#        108299
#        126929
#        139761
#        157412
#        177898
#        191432
#        208817
#        227038
#        242479
#        258205
#        274770
#        292050
#        311286
#        333394
#
# Disc length: 4676 seconds
#
# Revision: 0
# Processed by: cddbd v1.5.1PL0 Copyright (c) Steve Scherf et al.
# Submitted via: ExactAudioCopy v0.95a3
#
DISCID=18124214
DTITLE=Various Artist - Неон Хит Микс 3
DYEAR=2000
DGENRE=Pop
TTITLE0=Руки Вверх! - Киска-Любовь
TTITLE1=Игорёк - Подождём
TTITLE2=А-Мега - Десант
TTITLE3=Demo - Выше Неба
TTITLE4=Оскар - Между Мной И Тобой
TTITLE5=Лена Перова - Лети За Солнцем
TTITLE6=Турбомода - Мама
TTITLE7=Агата Кристи - Выпить Море
TTITLE8=Алла Горбачёва - Пять Часов На Улице
TTITLE9=Revoльvers - Не Уходи
TTITLE10=Playbox - Ты Красавицей Была
TTITLE11=Вирус - Не Верь
TTITLE12=Однажды - Солнце В Твоих Глазах
TTITLE13=Фанки - Игрушка
TTITLE14=Хали-Гали - Анюта
TTITLE15=Карамель - Где Ты?
TTITLE16=Малыш - Зайчик Мой
TTITLE17=Двое - С Тобой
TTITLE18=Наталья Власова - Я У Твоих Ног (Ремикс)
TTITLE19=Деонис - Где Же Ты
EXTD=
EXTT0=
EXTT1=
EXTT2=
EXTT3=
EXTT4=
EXTT5=
EXTT6=
EXTT7=
EXTT8=
EXTT9=
EXTT10=
EXTT11=
EXTT12=
EXTT13=
EXTT14=
EXTT15=
EXTT16=
EXTT17=
EXTT18=
EXTT19=
PLAYORDER=
